<?xml version="1.0" encoding="UTF-8"?>
<!DOCTYPE svg PUBLIC "-//W3C//DTD SVG 1.1//EN" "http://www.w3.org/Graphics/SVG/1.1/DTD/svg11.dtd">
<svg xmlns="http://www.w3.org/2000/svg" version="1.1" width="398px" height="398px" style="shape-rendering:geometricPrecision; text-rendering:geometricPrecision; image-rendering:optimizeQuality; fill-rule:evenodd; clip-rule:evenodd" xmlns:xlink="http://www.w3.org/1999/xlink">
<g><path style="opacity:1" fill="#f8fcfb" d="M 223.5,96.5 C 228.833,100.167 234.167,103.833 239.5,107.5C 241.167,109.5 242.833,111.5 244.5,113.5C 243.078,113.709 241.745,114.209 240.5,115C 235.948,120.055 230.948,124.555 225.5,128.5C 217.555,115.602 209.888,102.602 202.5,89.5C 201.962,87.8828 201.629,86.2161 201.5,84.5C 201.811,83.5222 202.478,82.8555 203.5,82.5C 208.609,83.3765 211.275,86.3765 211.5,91.5C 215.913,92.2635 219.913,93.9301 223.5,96.5 Z"/></g>
<g><path style="opacity:1" fill="#63abec" d="M 215.5,85.5 C 231.428,88.5291 247.095,92.6958 262.5,98C 263.756,98.4169 264.423,99.2502 264.5,100.5C 258.746,100.327 253.413,98.8268 248.5,96C 243.248,96.0025 238.081,95.8358 233,95.5C 228.899,96.6561 228.732,97.8227 232.5,99C 235.2,101.588 237.533,104.421 239.5,107.5C 234.167,103.833 228.833,100.167 223.5,96.5C 219.836,92.8428 215.836,89.5095 211.5,86.5C 212.689,85.5713 214.022,85.238 215.5,85.5 Z"/></g>
<g><path style="opacity:1" fill="#fafdfc" d="M 184.5,139.5 C 184.167,139.5 183.833,139.5 183.5,139.5C 183.167,139.5 182.833,139.5 182.5,139.5C 179.443,136.115 176.443,132.782 173.5,129.5C 177.609,123.617 180.942,117.284 183.5,110.5C 186.726,105.729 189.726,100.729 192.5,95.5C 194.061,94.6527 195.561,94.9861 197,96.5C 197.833,111.844 197.666,127.178 196.5,142.5C 195.833,143.5 195.167,144.5 194.5,145.5C 190.89,143.875 187.557,141.875 184.5,139.5 Z"/></g>
<g><path style="opacity:1" fill="#f8fcfc" d="M 202.5,90.5 C 209.789,104.079 216.789,117.746 223.5,131.5C 219.792,135.21 215.792,138.543 211.5,141.5C 210.448,141.351 209.448,141.517 208.5,142C 206.533,144.037 204.366,145.87 202,147.5C 201.667,147.167 201.333,146.833 201,146.5C 200.833,137.167 200.667,127.833 200.5,118.5C 200.502,108.809 201.168,99.4752 202.5,90.5 Z"/></g>
<g><path style="opacity:1" fill="#76b3e1" d="M 188.5,81.5 C 188.5,82.8333 188.5,84.1667 188.5,85.5C 179.291,91.0356 170.624,97.3689 162.5,104.5C 162.5,103.167 162.5,101.833 162.5,100.5C 167.98,98.0442 172.98,94.7109 177.5,90.5C 174.232,89.513 170.898,89.1796 167.5,89.5C 174.424,86.8363 181.424,84.1697 188.5,81.5 Z"/></g>
<g><path style="opacity:0.753" fill="#8bc4ee" d="M 162.5,89.5 C 156.52,95.1858 149.187,97.8525 140.5,97.5C 147.704,94.7135 155.038,92.0468 162.5,89.5 Z"/></g>
<g><path style="opacity:1" fill="#f5fcfc" d="M 188.5,85.5 C 190.103,85.3118 191.437,85.8118 192.5,87C 190.934,89.9304 190.1,93.0971 190,96.5C 187.548,101.068 185.382,105.735 183.5,110.5C 179.846,116.469 176.179,122.469 172.5,128.5C 167.052,124.555 162.052,120.055 157.5,115C 154.899,112.502 153.565,113.002 153.5,116.5C 148.699,116.768 147.699,118.768 150.5,122.5C 148.807,123.228 147.307,124.228 146,125.5C 141.75,124.489 137.917,125.989 134.5,130C 132.372,130.655 130.372,131.489 128.5,132.5C 130.194,130.139 132.194,128.139 134.5,126.5C 144.12,119.548 153.454,112.215 162.5,104.5C 170.624,97.3689 179.291,91.0356 188.5,85.5 Z"/></g>
<g><path style="opacity:1" fill="#469ff4" d="M 264.5,100.5 C 265.794,101.29 266.961,102.29 268,103.5C 268.921,106.336 270.088,109.002 271.5,111.5C 270.18,110.058 268.514,109.392 266.5,109.5C 266.5,108.167 266.5,106.833 266.5,105.5C 263.708,105.548 261.875,104.215 261,101.5C 260.952,104.329 259.952,106.663 258,108.5C 254.725,107.198 251.725,105.532 249,103.5C 248.167,103.833 247.333,104.167 246.5,104.5C 247.597,106.535 249.263,107.868 251.5,108.5C 251.826,110.51 252.159,112.51 252.5,114.5C 259.545,108.583 263.878,110.25 265.5,119.5C 262.541,119.65 260.041,118.65 258,116.5C 257.833,116.833 257.667,117.167 257.5,117.5C 259.526,120.518 261.526,123.518 263.5,126.5C 257.369,121.93 251.036,117.596 244.5,113.5C 242.833,111.5 241.167,109.5 239.5,107.5C 237.533,104.421 235.2,101.588 232.5,99C 228.732,97.8227 228.899,96.6561 233,95.5C 238.081,95.8358 243.248,96.0025 248.5,96C 253.413,98.8268 258.746,100.327 264.5,100.5 Z"/></g>
<g><path style="opacity:1" fill="#57aff5" d="M 162.5,89.5 C 164.167,89.5 165.833,89.5 167.5,89.5C 170.898,89.1796 174.232,89.513 177.5,90.5C 172.98,94.7109 167.98,98.0442 162.5,100.5C 162.5,101.833 162.5,103.167 162.5,104.5C 153.454,112.215 144.12,119.548 134.5,126.5C 134.183,122.828 135.849,121.162 139.5,121.5C 139.5,119.833 139.5,118.167 139.5,116.5C 140.5,116.5 141.5,116.5 142.5,116.5C 142.5,115.5 142.5,114.5 142.5,113.5C 147.643,112.729 152.309,111.062 156.5,108.5C 155.011,103.69 151.678,101.023 146.5,100.5C 147.506,99.6043 147.506,98.9377 146.5,98.5C 145.167,99.1667 143.833,99.8333 142.5,100.5C 141.755,102.747 140.422,104.58 138.5,106C 136.965,105.339 135.298,105.006 133.5,105C 132.786,106.343 133.12,107.676 134.5,109C 132.295,111.54 129.795,113.707 127,115.5C 126.517,116.448 126.351,117.448 126.5,118.5C 125.041,118.433 123.708,118.766 122.5,119.5C 122.92,117.906 123.586,116.406 124.5,115C 124.43,114.235 124.097,113.735 123.5,113.5C 125.972,108.049 129.306,103.216 133.5,99C 135.74,98.023 138.073,97.523 140.5,97.5C 149.187,97.8525 156.52,95.1858 162.5,89.5 Z"/></g>
<g><path style="opacity:1" fill="#f7fcfc" d="M 244.5,113.5 C 251.036,117.596 257.369,121.93 263.5,126.5C 264.911,128.914 266.911,130.581 269.5,131.5C 276.475,137.471 283.475,143.471 290.5,149.5C 291.141,150.482 291.807,151.482 292.5,152.5C 291.5,152.833 290.5,153.167 289.5,153.5C 274.712,151.009 260.046,148.009 245.5,144.5C 244.07,143.463 242.403,142.796 240.5,142.5C 241.94,132.857 243.274,123.19 244.5,113.5 Z"/></g>
<g><path style="opacity:1" fill="#4eadfb" d="M 134.5,126.5 C 132.194,128.139 130.194,130.139 128.5,132.5C 128.167,132.5 127.833,132.5 127.5,132.5C 123.351,134.739 119.018,136.739 114.5,138.5C 114.343,137.127 114.51,135.793 115,134.5C 116.821,131.851 119.321,130.184 122.5,129.5C 118.533,126.084 118.533,122.75 122.5,119.5C 123.708,118.766 125.041,118.433 126.5,118.5C 126.351,117.448 126.517,116.448 127,115.5C 129.795,113.707 132.295,111.54 134.5,109C 133.12,107.676 132.786,106.343 133.5,105C 135.298,105.006 136.965,105.339 138.5,106C 140.422,104.58 141.755,102.747 142.5,100.5C 143.833,99.8333 145.167,99.1667 146.5,98.5C 147.506,98.9377 147.506,99.6043 146.5,100.5C 151.678,101.023 155.011,103.69 156.5,108.5C 152.309,111.062 147.643,112.729 142.5,113.5C 142.5,114.5 142.5,115.5 142.5,116.5C 141.5,116.5 140.5,116.5 139.5,116.5C 139.5,118.167 139.5,119.833 139.5,121.5C 135.849,121.162 134.183,122.828 134.5,126.5 Z"/></g>
<g><path style="opacity:1" fill="#3a94f1" d="M 271.5,111.5 C 271.337,113.857 271.503,116.19 272,118.5C 275.239,125.557 279.073,132.224 283.5,138.5C 283.167,139.167 282.833,139.833 282.5,140.5C 278.734,136.565 274.401,133.565 269.5,131.5C 266.911,130.581 264.911,128.914 263.5,126.5C 261.526,123.518 259.526,120.518 257.5,117.5C 257.667,117.167 257.833,116.833 258,116.5C 260.041,118.65 262.541,119.65 265.5,119.5C 263.878,110.25 259.545,108.583 252.5,114.5C 252.159,112.51 251.826,110.51 251.5,108.5C 249.263,107.868 247.597,106.535 246.5,104.5C 247.333,104.167 248.167,103.833 249,103.5C 251.725,105.532 254.725,107.198 258,108.5C 259.952,106.663 260.952,104.329 261,101.5C 261.875,104.215 263.708,105.548 266.5,105.5C 266.5,106.833 266.5,108.167 266.5,109.5C 268.514,109.392 270.18,110.058 271.5,111.5 Z"/></g>
<g><path style="opacity:1" fill="#f9fcfc" d="M 153.5,116.5 C 155.356,124.278 157.022,132.111 158.5,140C 158.257,140.902 157.923,141.735 157.5,142.5C 157.5,142.833 157.5,143.167 157.5,143.5C 141.58,146.918 125.58,149.918 109.5,152.5C 108.167,152.333 106.833,152.167 105.5,152C 106.71,150.961 107.71,149.794 108.5,148.5C 114.833,143.167 121.167,137.833 127.5,132.5C 127.833,132.5 128.167,132.5 128.5,132.5C 130.372,131.489 132.372,130.655 134.5,130C 137.917,125.989 141.75,124.489 146,125.5C 147.307,124.228 148.807,123.228 150.5,122.5C 147.699,118.768 148.699,116.768 153.5,116.5 Z"/></g>
<g><path style="opacity:1" fill="#d1e2ee" d="M 202.5,89.5 C 209.888,102.602 217.555,115.602 225.5,128.5C 230.948,124.555 235.948,120.055 240.5,115C 241.745,114.209 243.078,113.709 244.5,113.5C 243.274,123.19 241.94,132.857 240.5,142.5C 239.732,141.737 239.232,140.737 239,139.5C 238.617,140.056 238.117,140.389 237.5,140.5C 234.786,137.785 231.786,135.451 228.5,133.5C 227.11,130.218 225.443,129.552 223.5,131.5C 216.789,117.746 209.789,104.079 202.5,90.5C 202.5,90.1667 202.5,89.8333 202.5,89.5 Z"/></g>
<g><path style="opacity:0.918" fill="#6aa4e3" d="M 271.5,111.5 C 279.842,123.509 287.176,136.176 293.5,149.5C 292.5,149.5 291.5,149.5 290.5,149.5C 283.475,143.471 276.475,137.471 269.5,131.5C 274.401,133.565 278.734,136.565 282.5,140.5C 282.833,139.833 283.167,139.167 283.5,138.5C 279.073,132.224 275.239,125.557 272,118.5C 271.503,116.19 271.337,113.857 271.5,111.5 Z"/></g>
<g><path style="opacity:1" fill="#7ebbee" d="M 123.5,113.5 C 124.097,113.735 124.43,114.235 124.5,115C 123.586,116.406 122.92,117.906 122.5,119.5C 118.533,122.75 118.533,126.084 122.5,129.5C 119.321,130.184 116.821,131.851 115,134.5C 114.51,135.793 114.343,137.127 114.5,138.5C 119.018,136.739 123.351,134.739 127.5,132.5C 121.167,137.833 114.833,143.167 108.5,148.5C 106.896,147.713 106.229,146.38 106.5,144.5C 111.942,133.943 117.608,123.609 123.5,113.5 Z"/></g>
<g><path style="opacity:1" fill="#d4e4ea" d="M 183.5,110.5 C 180.942,117.284 177.609,123.617 173.5,129.5C 168.893,132.768 164.559,136.435 160.5,140.5C 159.833,141.833 159.167,143.167 158.5,144.5C 158.672,143.508 158.338,142.842 157.5,142.5C 157.923,141.735 158.257,140.902 158.5,140C 157.022,132.111 155.356,124.278 153.5,116.5C 153.565,113.002 154.899,112.502 157.5,115C 162.052,120.055 167.052,124.555 172.5,128.5C 176.179,122.469 179.846,116.469 183.5,110.5 Z"/></g>
<g><path style="opacity:1" fill="#4cb1fc" d="M 182.5,139.5 C 182.833,139.5 183.167,139.5 183.5,139.5C 184.179,141.668 185.179,143.668 186.5,145.5C 185.99,147.088 184.99,148.255 183.5,149C 184.025,149.692 184.692,150.192 185.5,150.5C 187.191,148.744 189.191,148.244 191.5,149C 191.03,151.631 191.697,154.131 193.5,156.5C 190.141,160.302 187.141,164.302 184.5,168.5C 184.082,167.778 183.416,167.278 182.5,167C 183.308,166.692 183.975,166.192 184.5,165.5C 183.147,164.476 182.48,163.143 182.5,161.5C 177.649,161.427 176.315,163.26 178.5,167C 177.004,167.507 175.837,167.007 175,165.5C 172.216,160.979 169.716,156.312 167.5,151.5C 168.428,150.232 168.595,148.899 168,147.5C 165.523,145.795 164.189,143.795 164,141.5C 162.913,143.932 162.413,143.598 162.5,140.5C 163.93,140.579 165.264,140.246 166.5,139.5C 167.439,137.947 168.606,136.613 170,135.5C 172.02,136.032 172.853,137.365 172.5,139.5C 174.277,139.214 175.944,138.547 177.5,137.5C 179.177,138.187 180.844,138.854 182.5,139.5 Z"/></g>
<g><path style="opacity:1" fill="#6bb8e8" d="M 228.5,133.5 C 226.863,132.782 225.197,132.616 223.5,133C 216.667,139.167 209.833,145.333 203,151.5C 202.333,152.833 202.333,154.167 203,155.5C 205.091,158.74 206.924,162.074 208.5,165.5C 205.479,162.634 202.979,159.3 201,155.5C 200.023,154.226 199.189,154.226 198.5,155.5C 190.526,163.961 184.192,173.461 179.5,184C 182.653,186.652 185.653,189.485 188.5,192.5C 181.575,188.248 174.908,183.581 168.5,178.5C 167.089,176.086 165.089,174.419 162.5,173.5C 161.808,164.6 160.475,155.934 158.5,147.5C 158.5,146.5 158.5,145.5 158.5,144.5C 159.167,143.167 159.833,141.833 160.5,140.5C 160.613,148.57 161.447,156.57 163,164.5C 165.046,166.7 166.046,169.367 166,172.5C 168.94,175.898 172.273,178.898 176,181.5C 177.261,181.241 178.261,180.574 179,179.5C 181.32,176.019 183.153,172.352 184.5,168.5C 187.141,164.302 190.141,160.302 193.5,156.5C 191.697,154.131 191.03,151.631 191.5,149C 189.191,148.244 187.191,148.744 185.5,150.5C 184.692,150.192 184.025,149.692 183.5,149C 184.99,148.255 185.99,147.088 186.5,145.5C 185.179,143.668 184.179,141.668 183.5,139.5C 183.833,139.5 184.167,139.5 184.5,139.5C 188.554,144.722 193.388,149.055 199,152.5C 203.942,149.726 208.108,146.059 211.5,141.5C 215.792,138.543 219.792,135.21 223.5,131.5C 225.443,129.552 227.11,130.218 228.5,133.5 Z"/></g>
<g><path style="opacity:1" fill="#4eb1f8" d="M 173.5,129.5 C 176.443,132.782 179.443,136.115 182.5,139.5C 180.844,138.854 179.177,138.187 177.5,137.5C 175.944,138.547 174.277,139.214 172.5,139.5C 172.853,137.365 172.02,136.032 170,135.5C 168.606,136.613 167.439,137.947 166.5,139.5C 165.264,140.246 163.93,140.579 162.5,140.5C 162.413,143.598 162.913,143.932 164,141.5C 164.189,143.795 165.523,145.795 168,147.5C 168.595,148.899 168.428,150.232 167.5,151.5C 169.716,156.312 172.216,160.979 175,165.5C 175.837,167.007 177.004,167.507 178.5,167C 176.315,163.26 177.649,161.427 182.5,161.5C 182.48,163.143 183.147,164.476 184.5,165.5C 183.975,166.192 183.308,166.692 182.5,167C 183.416,167.278 184.082,167.778 184.5,168.5C 183.153,172.352 181.32,176.019 179,179.5C 178.261,180.574 177.261,181.241 176,181.5C 172.273,178.898 168.94,175.898 166,172.5C 166.046,169.367 165.046,166.7 163,164.5C 161.447,156.57 160.613,148.57 160.5,140.5C 164.559,136.435 168.893,132.768 173.5,129.5 Z"/></g>
<g><path style="opacity:1" fill="#42a5f8" d="M 228.5,133.5 C 231.786,135.451 234.786,137.785 237.5,140.5C 236.447,151.203 235.114,161.87 233.5,172.5C 233.489,174.017 232.823,175.184 231.5,176C 226.043,180.048 221.043,183.881 216.5,187.5C 217.812,184.976 218.312,182.309 218,179.5C 214.071,175.295 210.904,170.628 208.5,165.5C 206.924,162.074 205.091,158.74 203,155.5C 202.333,154.167 202.333,152.833 203,151.5C 209.833,145.333 216.667,139.167 223.5,133C 225.197,132.616 226.863,132.782 228.5,133.5 Z"/></g>
<g><path style="opacity:1" fill="#e2f2f7" d="M 215.5,85.5 C 214.022,85.238 212.689,85.5713 211.5,86.5C 215.836,89.5095 219.836,92.8428 223.5,96.5C 219.913,93.9301 215.913,92.2635 211.5,91.5C 211.275,86.3765 208.609,83.3765 203.5,82.5C 202.478,82.8555 201.811,83.5222 201.5,84.5C 200.288,83.7701 199.288,82.7701 198.5,81.5C 196.58,84.3388 194.913,87.3388 193.5,90.5C 193.846,91.6956 194.346,91.6956 195,90.5C 196,88.5 197,86.5 198,84.5C 198.333,106.833 198.667,129.167 199,151.5C 199.333,129.833 199.667,108.167 200,86.5C 200.377,87.9423 201.21,88.9423 202.5,89.5C 202.5,89.8333 202.5,90.1667 202.5,90.5C 201.168,99.4752 200.502,108.809 200.5,118.5C 200.667,127.833 200.833,137.167 201,146.5C 201.333,146.833 201.667,147.167 202,147.5C 204.366,145.87 206.533,144.037 208.5,142C 209.448,141.517 210.448,141.351 211.5,141.5C 208.108,146.059 203.942,149.726 199,152.5C 193.388,149.055 188.554,144.722 184.5,139.5C 187.557,141.875 190.89,143.875 194.5,145.5C 195.167,144.5 195.833,143.5 196.5,142.5C 197.666,127.178 197.833,111.844 197,96.5C 195.561,94.9861 194.061,94.6527 192.5,95.5C 189.726,100.729 186.726,105.729 183.5,110.5C 185.382,105.735 187.548,101.068 190,96.5C 190.1,93.0971 190.934,89.9304 192.5,87C 191.437,85.8118 190.103,85.3118 188.5,85.5C 188.5,84.1667 188.5,82.8333 188.5,81.5C 191.812,80.1796 195.145,78.8462 198.5,77.5C 204.235,80.1809 209.901,82.8476 215.5,85.5 Z"/></g>
<g><path style="opacity:1" fill="#a5b4bc" d="M 201.5,84.5 C 201.629,86.2161 201.962,87.8828 202.5,89.5C 201.21,88.9423 200.377,87.9423 200,86.5C 199.667,108.167 199.333,129.833 199,151.5C 198.667,129.167 198.333,106.833 198,84.5C 197,86.5 196,88.5 195,90.5C 194.346,91.6956 193.846,91.6956 193.5,90.5C 194.913,87.3388 196.58,84.3388 198.5,81.5C 199.288,82.7701 200.288,83.7701 201.5,84.5 Z"/></g>
<g><path style="opacity:1" fill="#c2d2d7" d="M 157.5,143.5 C 156.167,144.833 154.833,146.167 153.5,147.5C 153.53,146.503 153.03,145.836 152,145.5C 138.453,148.807 124.953,151.973 111.5,155C 121.013,159.257 130.346,163.757 139.5,168.5C 139.068,169.71 138.401,170.71 137.5,171.5C 137.719,170.325 137.386,169.325 136.5,168.5C 125.073,162.611 113.406,157.611 101.5,153.5C 102.943,150.272 104.61,147.272 106.5,144.5C 106.229,146.38 106.896,147.713 108.5,148.5C 107.71,149.794 106.71,150.961 105.5,152C 106.833,152.167 108.167,152.333 109.5,152.5C 125.58,149.918 141.58,146.918 157.5,143.5 Z"/></g>
<g><path style="opacity:1" fill="#f7fcfb" d="M 153.5,147.5 C 149.473,153.851 145.473,160.184 141.5,166.5C 140.5,166.833 139.833,167.5 139.5,168.5C 130.346,163.757 121.013,159.257 111.5,155C 124.953,151.973 138.453,148.807 152,145.5C 153.03,145.836 153.53,146.503 153.5,147.5 Z"/></g>
<g><path style="opacity:1" fill="#eaf5f9" d="M 240.5,143.5 C 240.5,143.167 240.5,142.833 240.5,142.5C 242.403,142.796 244.07,143.463 245.5,144.5C 243.621,144.393 243.288,144.893 244.5,146C 259.033,149.633 273.699,152.633 288.5,155C 285.382,156.147 282.382,157.48 279.5,159C 284.3,158.235 288.966,156.735 293.5,154.5C 294.429,155.689 294.762,157.022 294.5,158.5C 293.89,159.391 293.557,160.391 293.5,161.5C 291.961,168.651 290.294,175.651 288.5,182.5C 288.775,174.685 289.608,167.018 291,159.5C 288.405,159.003 285.905,159.67 283.5,161.5C 282.188,160.54 280.854,160.706 279.5,162C 279.833,162.333 280.167,162.667 280.5,163C 279.207,163.49 277.873,163.657 276.5,163.5C 276.688,165.103 276.188,166.437 275,167.5C 274.667,167.167 274.333,166.833 274,166.5C 269.15,167.385 264.65,168.718 260.5,170.5C 259.833,170.167 259.167,169.833 258.5,169.5C 258.737,168.209 258.404,167.209 257.5,166.5C 256.299,164.091 254.633,162.091 252.5,160.5C 249.235,154.299 245.235,148.632 240.5,143.5 Z"/></g>
<g><path style="opacity:1" fill="#c0ccd2" d="M 245.5,144.5 C 260.046,148.009 274.712,151.009 289.5,153.5C 290.5,153.167 291.5,152.833 292.5,152.5C 291.807,151.482 291.141,150.482 290.5,149.5C 291.5,149.5 292.5,149.5 293.5,149.5C 295.025,152.238 296.025,155.238 296.5,158.5C 295.833,158.5 295.167,158.5 294.5,158.5C 294.762,157.022 294.429,155.689 293.5,154.5C 288.966,156.735 284.3,158.235 279.5,159C 282.382,157.48 285.382,156.147 288.5,155C 273.699,152.633 259.033,149.633 244.5,146C 243.288,144.893 243.621,144.393 245.5,144.5 Z"/></g>
<g><path style="opacity:1" fill="#f7fcfc" d="M 101.5,153.5 C 113.406,157.611 125.073,162.611 136.5,168.5C 137.386,169.325 137.719,170.325 137.5,171.5C 134.61,172.899 133.11,175.232 133,178.5C 132,179.5 131,180.5 130,181.5C 125.519,190.461 120.519,199.128 115,207.5C 114.155,205.389 113.322,203.389 112.5,201.5C 109.732,187.829 106.899,174.162 104,160.5C 103.667,160.167 103.333,159.833 103,159.5C 102.19,163.787 100.357,167.454 97.5,170.5C 97.9758,166.905 99.1425,163.572 101,160.5C 101.497,158.19 101.663,155.857 101.5,153.5 Z"/></g>
<g><path style="opacity:1" fill="#8bd5f1" d="M 240.5,142.5 C 240.5,142.833 240.5,143.167 240.5,143.5C 238.836,144.949 238.002,146.949 238,149.5C 236.77,157.799 235.937,166.132 235.5,174.5C 234.833,173.833 234.167,173.167 233.5,172.5C 235.114,161.87 236.447,151.203 237.5,140.5C 238.117,140.389 238.617,140.056 239,139.5C 239.232,140.737 239.732,141.737 240.5,142.5 Z"/></g>
<g><path style="opacity:1" fill="#fafdfc" d="M 288.5,182.5 C 287.262,190.596 285.595,198.596 283.5,206.5C 282.883,206.611 282.383,206.944 282,207.5C 278,200.167 274,192.833 270,185.5C 266.312,181.419 263.145,177.086 260.5,172.5C 260.5,171.833 260.5,171.167 260.5,170.5C 264.65,168.718 269.15,167.385 274,166.5C 274.333,166.833 274.667,167.167 275,167.5C 276.188,166.437 276.688,165.103 276.5,163.5C 277.873,163.657 279.207,163.49 280.5,163C 280.167,162.667 279.833,162.333 279.5,162C 280.854,160.706 282.188,160.54 283.5,161.5C 285.905,159.67 288.405,159.003 291,159.5C 289.608,167.018 288.775,174.685 288.5,182.5 Z"/></g>
<g><path style="opacity:1" fill="#51a4ef" d="M 157.5,142.5 C 158.338,142.842 158.672,143.508 158.5,144.5C 158.5,145.5 158.5,146.5 158.5,147.5C 158.436,152.193 158.769,156.859 159.5,161.5C 159.415,163.333 158.748,164.666 157.5,165.5C 156.07,165.421 154.736,165.754 153.5,166.5C 152.833,163.167 152.167,159.833 151.5,156.5C 148.85,159.651 146.016,162.651 143,165.5C 142.51,166.793 142.343,168.127 142.5,169.5C 144.451,169.773 145.951,169.107 147,167.5C 147.497,169.81 147.663,172.143 147.5,174.5C 144.27,172.623 142.27,169.956 141.5,166.5C 145.473,160.184 149.473,153.851 153.5,147.5C 154.833,146.167 156.167,144.833 157.5,143.5C 157.5,143.167 157.5,142.833 157.5,142.5 Z"/></g>
<g><path style="opacity:1" fill="#419df7" d="M 157.5,165.5 C 158.723,167.412 159.723,170.078 160.5,173.5C 159.167,173.5 157.833,173.5 156.5,173.5C 156.5,175.167 156.5,176.833 156.5,178.5C 153.526,177.215 150.526,175.882 147.5,174.5C 147.663,172.143 147.497,169.81 147,167.5C 145.951,169.107 144.451,169.773 142.5,169.5C 142.343,168.127 142.51,166.793 143,165.5C 146.016,162.651 148.85,159.651 151.5,156.5C 152.167,159.833 152.833,163.167 153.5,166.5C 154.736,165.754 156.07,165.421 157.5,165.5 Z"/></g>
<g><path style="opacity:1" fill="#3690eb" d="M 208.5,165.5 C 210.904,170.628 214.071,175.295 218,179.5C 218.312,182.309 217.812,184.976 216.5,187.5C 211.226,190.446 206.56,194.112 202.5,198.5C 202.167,198.5 201.833,198.5 201.5,198.5C 199.284,198.725 197.617,197.892 196.5,196C 198.471,182.747 199.138,169.247 198.5,155.5C 199.189,154.226 200.023,154.226 201,155.5C 202.979,159.3 205.479,162.634 208.5,165.5 Z"/></g>
<g><path style="opacity:1" fill="#2e84e2" d="M 252.5,160.5 C 254.633,162.091 256.299,164.091 257.5,166.5C 257.607,168.903 256.607,170.736 254.5,172C 251.368,174.082 248.368,176.248 245.5,178.5C 243.955,179.452 242.288,179.785 240.5,179.5C 239.608,174.885 238.608,170.219 237.5,165.5C 238.991,159.628 239.825,153.628 240,147.5C 240.667,146.167 241.333,146.167 242,147.5C 244.183,152.98 247.683,157.313 252.5,160.5 Z"/></g>
<g><path style="opacity:0.016" fill="#97c4f8" d="M 294.5,158.5 C 295.167,158.5 295.833,158.5 296.5,158.5C 298.637,164.91 300.97,171.244 303.5,177.5C 300.185,172.204 297.352,166.538 295,160.5C 294.617,161.056 294.117,161.389 293.5,161.5C 293.557,160.391 293.89,159.391 294.5,158.5 Z"/></g>
<g><path style="opacity:1" fill="#4e9adb" d="M 240.5,143.5 C 245.235,148.632 249.235,154.299 252.5,160.5C 247.683,157.313 244.183,152.98 242,147.5C 241.333,146.167 240.667,146.167 240,147.5C 239.825,153.628 238.991,159.628 237.5,165.5C 238.608,170.219 239.608,174.885 240.5,179.5C 242.288,179.785 243.955,179.452 245.5,178.5C 248.368,176.248 251.368,174.082 254.5,172C 256.607,170.736 257.607,168.903 257.5,166.5C 258.404,167.209 258.737,168.209 258.5,169.5C 253.861,173.968 249.028,178.301 244,182.5C 243.517,183.448 243.351,184.448 243.5,185.5C 240.865,181.857 238.199,178.19 235.5,174.5C 235.937,166.132 236.77,157.799 238,149.5C 238.002,146.949 238.836,144.949 240.5,143.5 Z"/></g>
<g><path style="opacity:1" fill="#62aae6" d="M 158.5,147.5 C 160.475,155.934 161.808,164.6 162.5,173.5C 160.167,176.833 157.833,180.167 155.5,183.5C 150.519,179.524 145.519,175.524 140.5,171.5C 138.233,179.942 136.233,188.608 134.5,197.5C 134.939,188.763 135.939,180.097 137.5,171.5C 138.401,170.71 139.068,169.71 139.5,168.5C 139.833,167.5 140.5,166.833 141.5,166.5C 142.27,169.956 144.27,172.623 147.5,174.5C 150.526,175.882 153.526,177.215 156.5,178.5C 156.5,176.833 156.5,175.167 156.5,173.5C 157.833,173.5 159.167,173.5 160.5,173.5C 159.723,170.078 158.723,167.412 157.5,165.5C 158.748,164.666 159.415,163.333 159.5,161.5C 158.769,156.859 158.436,152.193 158.5,147.5 Z"/></g>
<g><path style="opacity:1" fill="#4ca7f9" d="M 198.5,155.5 C 199.138,169.247 198.471,182.747 196.5,196C 197.617,197.892 199.284,198.725 201.5,198.5C 200.833,199.167 200.167,199.833 199.5,200.5C 199.167,200.5 198.833,200.5 198.5,200.5C 195.5,198.5 192.5,196.5 189.5,194.5C 189.167,193.833 188.833,193.167 188.5,192.5C 185.653,189.485 182.653,186.652 179.5,184C 184.192,173.461 190.526,163.961 198.5,155.5 Z"/></g>
<g><path style="opacity:1" fill="#4da5f4" d="M 112.5,201.5 C 112.942,205.154 113.276,208.821 113.5,212.5C 112.793,215.786 112.46,219.119 112.5,222.5C 111.833,224.5 111.167,226.5 110.5,228.5C 111.122,221.836 111.288,215.169 111,208.5C 110.019,211.655 108.685,211.988 107,209.5C 106.566,213.223 105.732,213.39 104.5,210C 105.72,207.83 105.72,205.663 104.5,203.5C 103.293,200.059 103.293,196.559 104.5,193C 103.169,190.372 102.336,187.538 102,184.5C 101.043,189.357 99.5431,194.024 97.5,198.5C 95.6667,200.167 93.8333,201.833 92,203.5C 89.6457,203.108 87.1457,203.108 84.5,203.5C 84.539,206.089 83.539,208.089 81.5,209.5C 84.9194,199.986 88.9194,190.653 93.5,181.5C 93.3764,180.893 93.0431,180.56 92.5,180.5C 93.6566,176.853 95.3233,173.52 97.5,170.5C 100.357,167.454 102.19,163.787 103,159.5C 103.333,159.833 103.667,160.167 104,160.5C 106.899,174.162 109.732,187.829 112.5,201.5 Z"/></g>
<g><path style="opacity:1" fill="#47a0f3" d="M 155.5,183.5 C 154.89,184.391 154.557,185.391 154.5,186.5C 153.185,187.476 151.852,188.476 150.5,189.5C 145.241,197.685 140.241,206.019 135.5,214.5C 134.883,214.611 134.383,214.944 134,215.5C 133.181,209.319 133.347,203.319 134.5,197.5C 136.233,188.608 138.233,179.942 140.5,171.5C 145.519,175.524 150.519,179.524 155.5,183.5 Z"/></g>
<g><path style="opacity:1" fill="#3886de" d="M 303.5,177.5 C 306.17,185.505 308.836,193.505 311.5,201.5C 308.164,200.477 306.664,198.144 307,194.5C 306,193.5 305,192.5 304,191.5C 303.472,187.057 302.472,182.723 301,178.5C 299.915,182.388 299.415,186.388 299.5,190.5C 298.232,191.428 296.899,191.595 295.5,191C 296.559,185.47 297.559,179.97 298.5,174.5C 296.5,174.5 294.5,174.5 292.5,174.5C 290.25,183.666 288.75,193 288,202.5C 287.153,204.193 286.32,205.86 285.5,207.5C 285.334,212.844 285.501,218.177 286,223.5C 287.011,224.337 288.178,224.67 289.5,224.5C 289.223,227.448 289.556,230.281 290.5,233C 292.494,231.887 294.494,230.387 296.5,228.5C 297.386,229.325 297.719,230.325 297.5,231.5C 299.927,231.477 302.26,230.977 304.5,230C 305.412,224.081 308.412,219.581 313.5,216.5C 314.298,216.957 314.631,217.624 314.5,218.5C 308.272,227.247 301.772,235.914 295,244.5C 294.329,245.252 293.496,245.586 292.5,245.5C 289.95,245.439 288.45,244.106 288,241.5C 287.665,237.264 286.832,233.264 285.5,229.5C 284.185,224.256 283.518,218.923 283.5,213.5C 283.5,211.167 283.5,208.833 283.5,206.5C 285.595,198.596 287.262,190.596 288.5,182.5C 290.294,175.651 291.961,168.651 293.5,161.5C 294.117,161.389 294.617,161.056 295,160.5C 297.352,166.538 300.185,172.204 303.5,177.5 Z"/></g>
<g><path style="opacity:1" fill="#f5fbfb" d="M 162.5,173.5 C 165.089,174.419 167.089,176.086 168.5,178.5C 169.96,180.144 171.293,181.977 172.5,184C 171.767,185.766 171.433,187.599 171.5,189.5C 168.159,199.189 164.826,208.856 161.5,218.5C 161.167,218.5 160.833,218.5 160.5,218.5C 158.37,208.518 156.37,198.518 154.5,188.5C 154.5,187.833 154.5,187.167 154.5,186.5C 154.557,185.391 154.89,184.391 155.5,183.5C 157.833,180.167 160.167,176.833 162.5,173.5 Z"/></g>
<g><path style="opacity:1" fill="#ebf8fa" d="M 233.5,172.5 C 234.167,173.167 234.833,173.833 235.5,174.5C 238.199,178.19 240.865,181.857 243.5,185.5C 243.5,185.833 243.5,186.167 243.5,186.5C 241.343,196.128 239.343,205.795 237.5,215.5C 236.883,215.611 236.383,215.944 236,216.5C 232.196,206.088 228.196,195.755 224,185.5C 223.346,184.304 222.846,184.304 222.5,185.5C 223.246,186.736 223.579,188.07 223.5,189.5C 221.956,189.703 220.622,190.37 219.5,191.5C 218.5,190.833 217.5,190.167 216.5,189.5C 213.939,191.64 211.605,193.973 209.5,196.5C 207.223,197.421 204.89,198.087 202.5,198.5C 206.56,194.112 211.226,190.446 216.5,187.5C 221.043,183.881 226.043,180.048 231.5,176C 232.823,175.184 233.489,174.017 233.5,172.5 Z"/></g>
<g><path style="opacity:1" fill="#3185e0" d="M 258.5,169.5 C 259.167,169.833 259.833,170.167 260.5,170.5C 260.5,171.167 260.5,171.833 260.5,172.5C 263.046,187.716 264.379,203.05 264.5,218.5C 261.57,219.299 258.57,219.632 255.5,219.5C 256.919,218.549 258.585,218.216 260.5,218.5C 260.5,217.5 260.5,216.5 260.5,215.5C 261.465,214.279 261.298,212.946 260,211.5C 254.244,203.262 248.744,194.928 243.5,186.5C 243.5,186.167 243.5,185.833 243.5,185.5C 243.351,184.448 243.517,183.448 244,182.5C 249.028,178.301 253.861,173.968 258.5,169.5 Z"/></g>
<g><path style="opacity:1" fill="#4da3f5" d="M 104.5,203.5 C 102.557,204.078 102.223,205.078 103.5,206.5C 102.895,208.481 101.895,208.815 100.5,207.5C 99.6919,207.808 99.0253,208.308 98.5,209C 93.3439,209.088 88.3439,209.921 83.5,211.5C 86.8588,220.039 92.0255,227.372 99,233.5C 99.49,234.793 99.6567,236.127 99.5,237.5C 102.227,238.367 104.227,240.201 105.5,243C 106.448,243.483 107.448,243.649 108.5,243.5C 108.189,238.234 108.855,233.234 110.5,228.5C 110.133,234.172 109.633,239.839 109,245.5C 108.302,246.691 107.469,247.691 106.5,248.5C 99.8637,240.191 93.197,231.858 86.5,223.5C 86.9382,223.565 87.2716,223.399 87.5,223C 83.8519,219.2 81.8519,214.7 81.5,209.5C 83.539,208.089 84.539,206.089 84.5,203.5C 87.1457,203.108 89.6457,203.108 92,203.5C 93.8333,201.833 95.6667,200.167 97.5,198.5C 99.5431,194.024 101.043,189.357 102,184.5C 102.336,187.538 103.169,190.372 104.5,193C 103.293,196.559 103.293,200.059 104.5,203.5 Z"/></g>
<g><path style="opacity:1" fill="#2386ef" d="M 311.5,201.5 C 315.647,205.283 316.98,209.949 315.5,215.5C 314.876,213.166 314.043,210.833 313,208.5C 312.667,209.167 312.333,209.833 312,210.5C 309.463,210.413 306.963,210.413 304.5,210.5C 298.01,210.066 291.677,209.066 285.5,207.5C 286.32,205.86 287.153,204.193 288,202.5C 288.75,193 290.25,183.666 292.5,174.5C 294.5,174.5 296.5,174.5 298.5,174.5C 297.559,179.97 296.559,185.47 295.5,191C 296.899,191.595 298.232,191.428 299.5,190.5C 299.415,186.388 299.915,182.388 301,178.5C 302.472,182.723 303.472,187.057 304,191.5C 305,192.5 306,193.5 307,194.5C 306.664,198.144 308.164,200.477 311.5,201.5 Z"/></g>
<g><path style="opacity:1" fill="#ccdff4" d="M 137.5,171.5 C 135.939,180.097 134.939,188.763 134.5,197.5C 133.347,203.319 133.181,209.319 134,215.5C 134.383,214.944 134.883,214.611 135.5,214.5C 134.587,216.086 134.587,217.586 135.5,219C 143.816,220.081 152.149,220.915 160.5,221.5C 160.5,220.5 160.5,219.5 160.5,218.5C 160.833,218.5 161.167,218.5 161.5,218.5C 161.5,219.5 161.5,220.5 161.5,221.5C 161.5,222.833 161.5,224.167 161.5,225.5C 161.167,225.5 160.833,225.5 160.5,225.5C 160.631,224.624 160.298,223.957 159.5,223.5C 157.64,224.26 155.973,225.26 154.5,226.5C 154.167,226.5 153.833,226.5 153.5,226.5C 153.953,225.542 154.619,224.708 155.5,224C 150.573,222.734 145.573,221.901 140.5,221.5C 138.359,221.613 136.525,222.28 135,223.5C 134.581,222.328 133.915,221.328 133,220.5C 130.899,227.71 129.399,235.044 128.5,242.5C 127.566,243.568 127.232,244.901 127.5,246.5C 127.167,246.5 126.833,246.5 126.5,246.5C 124.7,236.674 122.2,227.008 119,217.5C 118.222,214.816 116.889,212.483 115,210.5C 114.722,211.416 114.222,212.082 113.5,212.5C 113.276,208.821 112.942,205.154 112.5,201.5C 113.322,203.389 114.155,205.389 115,207.5C 120.519,199.128 125.519,190.461 130,181.5C 131,180.5 132,179.5 133,178.5C 133.11,175.232 134.61,172.899 137.5,171.5 Z"/></g>
<g><path style="opacity:0.149" fill="#a0cff9" d="M 92.5,180.5 C 93.0431,180.56 93.3764,180.893 93.5,181.5C 88.9194,190.653 84.9194,199.986 81.5,209.5C 81.8519,214.7 83.8519,219.2 87.5,223C 87.2716,223.399 86.9382,223.565 86.5,223.5C 83.1686,220.183 80.8353,216.183 79.5,211.5C 83.2511,200.911 87.5845,190.577 92.5,180.5 Z"/></g>
<g><path style="opacity:1" fill="#7eccf3" d="M 154.5,186.5 C 154.5,187.167 154.5,187.833 154.5,188.5C 148.167,197.167 141.833,205.833 135.5,214.5C 140.241,206.019 145.241,197.685 150.5,189.5C 151.852,188.476 153.185,187.476 154.5,186.5 Z"/></g>
<g><path style="opacity:0.808" fill="#6da5e7" d="M 303.5,177.5 C 309.167,188.321 314.167,199.487 318.5,211C 318.242,213.009 317.575,214.843 316.5,216.5C 315.833,216.5 315.5,216.167 315.5,215.5C 316.98,209.949 315.647,205.283 311.5,201.5C 308.836,193.505 306.17,185.505 303.5,177.5 Z"/></g>
<g><path style="opacity:1" fill="#c0d3ee" d="M 260.5,172.5 C 263.145,177.086 266.312,181.419 270,185.5C 274,192.833 278,200.167 282,207.5C 282.383,206.944 282.883,206.611 283.5,206.5C 283.5,208.833 283.5,211.167 283.5,213.5C 282.662,213.158 282.328,212.492 282.5,211.5C 282.631,210.761 282.464,210.094 282,209.5C 276.92,211.955 272.087,214.788 267.5,218C 266.695,219.113 266.028,220.279 265.5,221.5C 264.596,220.791 264.263,219.791 264.5,218.5C 264.379,203.05 263.046,187.716 260.5,172.5 Z"/></g>
<g><path style="opacity:1" fill="#3b99f6" d="M 104.5,203.5 C 105.72,205.663 105.72,207.83 104.5,210C 105.732,213.39 106.566,213.223 107,209.5C 108.685,211.988 110.019,211.655 111,208.5C 111.288,215.169 111.122,221.836 110.5,228.5C 108.855,233.234 108.189,238.234 108.5,243.5C 107.448,243.649 106.448,243.483 105.5,243C 104.227,240.201 102.227,238.367 99.5,237.5C 99.6567,236.127 99.49,234.793 99,233.5C 92.0255,227.372 86.8588,220.039 83.5,211.5C 88.3439,209.921 93.3439,209.088 98.5,209C 99.0253,208.308 99.6919,207.808 100.5,207.5C 101.895,208.815 102.895,208.481 103.5,206.5C 102.223,205.078 102.557,204.078 104.5,203.5 Z"/></g>
<g><path style="opacity:1" fill="#1f7be5" d="M 285.5,207.5 C 291.677,209.066 298.01,210.066 304.5,210.5C 306.963,210.413 309.463,210.413 312,210.5C 312.333,209.833 312.667,209.167 313,208.5C 314.043,210.833 314.876,213.166 315.5,215.5C 315.5,216.167 315.833,216.5 316.5,216.5C 316.167,217.5 315.5,218.167 314.5,218.5C 314.631,217.624 314.298,216.957 313.5,216.5C 308.412,219.581 305.412,224.081 304.5,230C 302.26,230.977 299.927,231.477 297.5,231.5C 297.719,230.325 297.386,229.325 296.5,228.5C 294.494,230.387 292.494,231.887 290.5,233C 289.556,230.281 289.223,227.448 289.5,224.5C 288.178,224.67 287.011,224.337 286,223.5C 285.501,218.177 285.334,212.844 285.5,207.5 Z"/></g>
<g><path style="opacity:1" fill="#2c85ea" d="M 260.5,215.5 C 260.5,216.5 260.5,217.5 260.5,218.5C 258.585,218.216 256.919,218.549 255.5,219.5C 249.794,219.829 244.128,219.495 238.5,218.5C 239.453,213.068 240.786,207.735 242.5,202.5C 243.086,202.709 243.586,203.043 244,203.5C 244.108,199.823 244.108,196.157 244,192.5C 250.462,199.464 255.962,207.131 260.5,215.5 Z"/></g>
<g><path style="opacity:1" fill="#489eed" d="M 154.5,188.5 C 156.37,198.518 158.37,208.518 160.5,218.5C 160.5,219.5 160.5,220.5 160.5,221.5C 152.149,220.915 143.816,220.081 135.5,219C 134.587,217.586 134.587,216.086 135.5,214.5C 141.833,205.833 148.167,197.167 154.5,188.5 Z"/></g>
<g><path style="opacity:1" fill="#eff9fb" d="M 168.5,178.5 C 174.908,183.581 181.575,188.248 188.5,192.5C 188.833,193.167 189.167,193.833 189.5,194.5C 192.5,196.5 195.5,198.5 198.5,200.5C 198.5,209.833 198.5,219.167 198.5,228.5C 186.526,226.008 174.692,223.008 163,219.5C 166.203,208.396 170.036,197.396 174.5,186.5C 174.333,186.167 174.167,185.833 174,185.5C 173.066,186.858 172.232,188.192 171.5,189.5C 171.433,187.599 171.767,185.766 172.5,184C 171.293,181.977 169.96,180.144 168.5,178.5 Z"/></g>
<g><path style="opacity:1" fill="#f9fdfc" d="M 126.5,246.5 C 126.649,247.552 126.483,248.552 126,249.5C 122.588,252.123 119.088,254.623 115.5,257C 113.471,257.681 111.471,258.014 109.5,258C 110.068,256.704 110.068,255.204 109.5,253.5C 109.709,252.006 110.376,250.839 111.5,250C 110.863,247.757 110.53,245.424 110.5,243C 111.494,236.196 112.161,229.363 112.5,222.5C 112.46,219.119 112.793,215.786 113.5,212.5C 114.222,212.082 114.722,211.416 115,210.5C 116.889,212.483 118.222,214.816 119,217.5C 122.2,227.008 124.7,236.674 126.5,246.5 Z"/></g>
<g><path style="opacity:1" fill="#5498da" d="M 243.5,186.5 C 248.744,194.928 254.244,203.262 260,211.5C 261.298,212.946 261.465,214.279 260.5,215.5C 255.962,207.131 250.462,199.464 244,192.5C 244.108,196.157 244.108,199.823 244,203.5C 243.586,203.043 243.086,202.709 242.5,202.5C 240.786,207.735 239.453,213.068 238.5,218.5C 244.128,219.495 249.794,219.829 255.5,219.5C 258.57,219.632 261.57,219.299 264.5,218.5C 264.263,219.791 264.596,220.791 265.5,221.5C 265.5,222.167 265.5,222.833 265.5,223.5C 264.603,222.402 263.77,222.402 263,223.5C 262.517,222.552 262.351,221.552 262.5,220.5C 259.722,220.022 257.722,221.022 256.5,223.5C 252.755,222.377 249.088,222.71 245.5,224.5C 247.5,228.5 250.5,231.5 254.5,233.5C 256.493,231.334 258.327,229.001 260,226.5C 259.651,229.404 258.485,232.07 256.5,234.5C 258.523,236.853 260.523,239.186 262.5,241.5C 256.272,237.548 250.606,232.881 245.5,227.5C 244.375,225.871 243.041,224.371 241.5,223C 245.25,222.74 248.916,222.073 252.5,221C 247.384,220.291 242.384,220.791 237.5,222.5C 239.571,224.185 241.571,225.852 243.5,227.5C 241.194,227.007 238.861,226.674 236.5,226.5C 236.802,229.059 236.468,231.393 235.5,233.5C 235.5,230.5 235.5,227.5 235.5,224.5C 236.344,221.655 237.01,218.655 237.5,215.5C 239.343,205.795 241.343,196.128 243.5,186.5 Z"/></g>
<g><path style="opacity:1" fill="#9cdaf4" d="M 245.5,227.5 C 244.833,227.5 244.167,227.5 243.5,227.5C 241.571,225.852 239.571,224.185 237.5,222.5C 242.384,220.791 247.384,220.291 252.5,221C 248.916,222.073 245.25,222.74 241.5,223C 243.041,224.371 244.375,225.871 245.5,227.5 Z"/></g>
<g><path style="opacity:1" fill="#b4c4ca" d="M 237.5,215.5 C 237.01,218.655 236.344,221.655 235.5,224.5C 235.5,223.5 235.5,222.5 235.5,221.5C 224.107,224.012 212.773,226.845 201.5,230C 199.893,231.049 199.227,232.549 199.5,234.5C 199.172,246.678 199.505,258.678 200.5,270.5C 199.167,271.833 197.833,271.833 196.5,270.5C 198.481,257.542 199.148,244.209 198.5,230.5C 186.182,227.37 173.849,224.37 161.5,221.5C 161.5,220.5 161.5,219.5 161.5,218.5C 164.826,208.856 168.159,199.189 171.5,189.5C 172.232,188.192 173.066,186.858 174,185.5C 174.167,185.833 174.333,186.167 174.5,186.5C 170.036,197.396 166.203,208.396 163,219.5C 174.692,223.008 186.526,226.008 198.5,228.5C 198.5,219.167 198.5,209.833 198.5,200.5C 198.833,200.5 199.167,200.5 199.5,200.5C 199.5,209.833 199.5,219.167 199.5,228.5C 211.655,225.539 223.655,222.206 235.5,218.5C 231.761,208.693 227.761,199.027 223.5,189.5C 223.579,188.07 223.246,186.736 222.5,185.5C 222.846,184.304 223.346,184.304 224,185.5C 228.196,195.755 232.196,206.088 236,216.5C 236.383,215.944 236.883,215.611 237.5,215.5 Z"/></g>
<g><path style="opacity:1" fill="#f4fbfc" d="M 223.5,189.5 C 227.761,199.027 231.761,208.693 235.5,218.5C 223.655,222.206 211.655,225.539 199.5,228.5C 199.5,219.167 199.5,209.833 199.5,200.5C 200.167,199.833 200.833,199.167 201.5,198.5C 201.833,198.5 202.167,198.5 202.5,198.5C 204.89,198.087 207.223,197.421 209.5,196.5C 211.605,193.973 213.939,191.64 216.5,189.5C 217.5,190.167 218.5,190.833 219.5,191.5C 220.622,190.37 221.956,189.703 223.5,189.5 Z"/></g>
<g><path style="opacity:1" fill="#fafdfd" d="M 189.5,194.5 C 189.908,198.745 192.075,201.745 196,203.5C 196.781,209.143 195.948,214.476 193.5,219.5C 193.846,220.696 194.346,220.696 195,219.5C 196.953,225.046 195.12,226.546 189.5,224C 189.043,223.586 188.709,223.086 188.5,222.5C 189.853,221.476 190.52,220.143 190.5,218.5C 189.178,218.67 188.011,218.337 187,217.5C 185.37,219.483 183.37,220.816 181,221.5C 175.899,219.332 170.732,217.999 165.5,217.5C 168.812,210.766 171.978,203.432 175,195.5C 175.374,193.102 175.374,190.769 175,188.5C 179.403,187.127 181.569,188.793 181.5,193.5C 184.167,193.833 186.833,194.167 189.5,194.5 Z"/></g>
<g><path style="opacity:1" fill="#ccddee" d="M 282.5,211.5 C 279.496,215.299 277.33,219.632 276,224.5C 274.056,232.159 272.223,239.826 270.5,247.5C 276.166,252.487 282.166,257.154 288.5,261.5C 289.98,256.302 289.48,251.302 287,246.5C 286.243,240.851 285.743,235.184 285.5,229.5C 286.832,233.264 287.665,237.264 288,241.5C 288.45,244.106 289.95,245.439 292.5,245.5C 291.196,250.655 291.196,255.821 292.5,261C 292.138,262.225 291.638,263.391 291,264.5C 286.857,267.819 282.357,270.486 277.5,272.5C 280.755,269.607 284.755,266.774 289.5,264C 287.608,263.027 285.608,262.36 283.5,262C 276.494,261.5 269.494,261 262.5,260.5C 263.982,256.826 266.148,253.493 269,250.5C 269.49,249.207 269.657,247.873 269.5,246.5C 269.171,238.539 267.838,230.872 265.5,223.5C 265.5,222.833 265.5,222.167 265.5,221.5C 266.028,220.279 266.695,219.113 267.5,218C 272.087,214.788 276.92,211.955 282,209.5C 282.464,210.094 282.631,210.761 282.5,211.5 Z"/></g>
<g><path style="opacity:1" fill="#f4fbfc" d="M 235.5,224.5 C 235.5,227.5 235.5,230.5 235.5,233.5C 234.437,237.639 233.77,241.972 233.5,246.5C 232.789,248.201 231.455,249.201 229.5,249.5C 227.226,249.715 225.059,250.382 223,251.5C 222.167,251.167 221.333,250.833 220.5,250.5C 221.711,249.28 221.711,248.113 220.5,247C 212.916,243.559 205.916,239.393 199.5,234.5C 199.227,232.549 199.893,231.049 201.5,230C 212.773,226.845 224.107,224.012 235.5,221.5C 235.5,222.5 235.5,223.5 235.5,224.5 Z"/></g>
<g><path style="opacity:1" fill="#f9fcfc" d="M 282.5,211.5 C 282.328,212.492 282.662,213.158 283.5,213.5C 283.518,218.923 284.185,224.256 285.5,229.5C 285.743,235.184 286.243,240.851 287,246.5C 289.48,251.302 289.98,256.302 288.5,261.5C 282.166,257.154 276.166,252.487 270.5,247.5C 272.223,239.826 274.056,232.159 276,224.5C 277.33,219.632 279.496,215.299 282.5,211.5 Z"/></g>
<g><path style="opacity:1" fill="#fafdfc" d="M 172.5,252.5 C 171.833,252.5 171.167,252.5 170.5,252.5C 169.086,250.946 167.419,249.612 165.5,248.5C 164.614,247.675 164.281,246.675 164.5,245.5C 164.873,238.708 164.206,232.041 162.5,225.5C 163,225.167 163.5,224.833 164,224.5C 171.936,227.027 180.436,228.86 189.5,230C 190.701,230.903 191.535,232.069 192,233.5C 193.388,232.446 194.888,232.28 196.5,233C 193.833,233.667 193.833,234.333 196.5,235C 195.975,235.692 195.308,236.192 194.5,236.5C 193.264,235.754 191.93,235.421 190.5,235.5C 190.241,239.068 188.241,240.401 184.5,239.5C 184.5,240.833 184.5,242.167 184.5,243.5C 181.699,244.766 178.699,245.599 175.5,246C 176.833,247.333 176.833,248.667 175.5,250C 176.167,250.667 176.833,251.333 177.5,252C 175.866,252.494 174.199,252.66 172.5,252.5 Z"/></g>
<g><path style="opacity:1" fill="#2f84e7" d="M 243.5,227.5 C 244.167,227.5 244.833,227.5 245.5,227.5C 250.606,232.881 256.272,237.548 262.5,241.5C 263.625,243.129 264.959,244.629 266.5,246C 265.167,246.167 263.833,246.333 262.5,246.5C 253.591,244.785 244.591,244.119 235.5,244.5C 235.5,240.833 235.5,237.167 235.5,233.5C 236.468,231.393 236.802,229.059 236.5,226.5C 238.861,226.674 241.194,227.007 243.5,227.5 Z"/></g>
<g><path style="opacity:1" fill="#f3fbfc" d="M 161.5,221.5 C 173.849,224.37 186.182,227.37 198.5,230.5C 199.148,244.209 198.481,257.542 196.5,270.5C 195.5,269.833 194.5,269.167 193.5,268.5C 193.167,267.5 192.5,266.833 191.5,266.5C 184.595,262.554 178.262,257.887 172.5,252.5C 174.199,252.66 175.866,252.494 177.5,252C 176.833,251.333 176.167,250.667 175.5,250C 176.833,248.667 176.833,247.333 175.5,246C 178.699,245.599 181.699,244.766 184.5,243.5C 184.5,242.167 184.5,240.833 184.5,239.5C 188.241,240.401 190.241,239.068 190.5,235.5C 191.93,235.421 193.264,235.754 194.5,236.5C 195.308,236.192 195.975,235.692 196.5,235C 193.833,234.333 193.833,233.667 196.5,233C 194.888,232.28 193.388,232.446 192,233.5C 191.535,232.069 190.701,230.903 189.5,230C 180.436,228.86 171.936,227.027 164,224.5C 163.5,224.833 163,225.167 162.5,225.5C 164.206,232.041 164.873,238.708 164.5,245.5C 164.167,245.5 163.833,245.5 163.5,245.5C 162.833,238.833 162.167,232.167 161.5,225.5C 161.5,224.167 161.5,222.833 161.5,221.5 Z"/></g>
<g><path style="opacity:1" fill="#479cf1" d="M 160.5,225.5 C 160.412,231.791 161.079,237.958 162.5,244C 153.16,244.881 143.826,245.715 134.5,246.5C 134.351,245.448 134.517,244.448 135,243.5C 141.397,237.595 147.897,231.929 154.5,226.5C 155.973,225.26 157.64,224.26 159.5,223.5C 160.298,223.957 160.631,224.624 160.5,225.5 Z"/></g>
<g><path style="opacity:1" fill="#e4effb" d="M 199.5,234.5 C 205.916,239.393 212.916,243.559 220.5,247C 221.711,248.113 221.711,249.28 220.5,250.5C 221.333,250.833 222.167,251.167 223,251.5C 225.059,250.382 227.226,249.715 229.5,249.5C 229.5,249.833 229.5,250.167 229.5,250.5C 222.475,254.677 215.808,259.344 209.5,264.5C 206.328,266.252 203.328,268.252 200.5,270.5C 199.505,258.678 199.172,246.678 199.5,234.5 Z"/></g>
<g><path style="opacity:1" fill="#4798e6" d="M 153.5,226.5 C 150.203,228.783 146.869,231.116 143.5,233.5C 142.108,232.395 140.941,231.061 140,229.5C 140.333,231.5 140.667,233.5 141,235.5C 137.292,239.377 133.458,243.043 129.5,246.5C 128.571,245.311 128.238,243.978 128.5,242.5C 129.399,235.044 130.899,227.71 133,220.5C 133.915,221.328 134.581,222.328 135,223.5C 136.525,222.28 138.359,221.613 140.5,221.5C 145.573,221.901 150.573,222.734 155.5,224C 154.619,224.708 153.953,225.542 153.5,226.5 Z"/></g>
<g><path style="opacity:1" fill="#3886db" d="M 265.5,223.5 C 267.838,230.872 269.171,238.539 269.5,246.5C 267.469,244.478 265.135,242.811 262.5,241.5C 260.523,239.186 258.523,236.853 256.5,234.5C 258.485,232.07 259.651,229.404 260,226.5C 258.327,229.001 256.493,231.334 254.5,233.5C 250.5,231.5 247.5,228.5 245.5,224.5C 249.088,222.71 252.755,222.377 256.5,223.5C 257.722,221.022 259.722,220.022 262.5,220.5C 262.351,221.552 262.517,222.552 263,223.5C 263.77,222.402 264.603,222.402 265.5,223.5 Z"/></g>
<g><path style="opacity:1" fill="#72b5e7" d="M 160.5,225.5 C 160.833,225.5 161.167,225.5 161.5,225.5C 162.167,232.167 162.833,238.833 163.5,245.5C 152.805,246.188 142.139,247.188 131.5,248.5C 131.307,251.475 132.307,253.975 134.5,256C 138.706,258.602 143.039,260.936 147.5,263C 148.833,263.667 150.167,263.667 151.5,263C 153.293,260.205 155.46,257.705 158,255.5C 157.13,259.054 155.297,262.221 152.5,265C 153.5,266 154.5,267 155.5,268C 153.62,267.49 151.787,267.657 150,268.5C 147.295,272.577 145.128,276.91 143.5,281.5C 142.833,281.5 142.5,281.167 142.5,280.5C 140.533,269.586 136.033,259.919 129,251.5C 127.991,249.975 127.491,248.308 127.5,246.5C 127.232,244.901 127.566,243.568 128.5,242.5C 128.238,243.978 128.571,245.311 129.5,246.5C 133.458,243.043 137.292,239.377 141,235.5C 140.667,233.5 140.333,231.5 140,229.5C 140.941,231.061 142.108,232.395 143.5,233.5C 146.869,231.116 150.203,228.783 153.5,226.5C 153.833,226.5 154.167,226.5 154.5,226.5C 147.897,231.929 141.397,237.595 135,243.5C 134.517,244.448 134.351,245.448 134.5,246.5C 143.826,245.715 153.16,244.881 162.5,244C 161.079,237.958 160.412,231.791 160.5,225.5 Z"/></g>
<g><path style="opacity:1" fill="#5ea0dc" d="M 235.5,233.5 C 235.5,237.167 235.5,240.833 235.5,244.5C 244.591,244.119 253.591,244.785 262.5,246.5C 263.833,246.333 265.167,246.167 266.5,246C 264.959,244.629 263.625,243.129 262.5,241.5C 265.135,242.811 267.469,244.478 269.5,246.5C 269.657,247.873 269.49,249.207 269,250.5C 266.148,253.493 263.982,256.826 262.5,260.5C 261.687,262.261 260.687,263.928 259.5,265.5C 259.5,264.167 259.5,262.833 259.5,261.5C 257.833,261.5 256.167,261.5 254.5,261.5C 258.07,259.77 261.237,257.437 264,254.5C 265.413,252.348 266.246,250.014 266.5,247.5C 255.496,247.278 244.496,246.944 233.5,246.5C 233.77,241.972 234.437,237.639 235.5,233.5 Z"/></g>
<g><path style="opacity:1" fill="#3988e1" d="M 163.5,245.5 C 163.833,245.5 164.167,245.5 164.5,245.5C 164.281,246.675 164.614,247.675 165.5,248.5C 167.419,249.612 169.086,250.946 170.5,252.5C 168.761,251.566 167.095,251.566 165.5,252.5C 165.808,253.308 166.308,253.975 167,254.5C 167.303,258.529 167.803,262.529 168.5,266.5C 168.392,267.442 168.059,268.275 167.5,269C 168.47,271.565 169.804,273.732 171.5,275.5C 171.5,276.167 171.167,276.5 170.5,276.5C 168.833,276.5 167.167,276.5 165.5,276.5C 165.762,277.978 165.429,279.311 164.5,280.5C 160.342,282.29 156.009,283.29 151.5,283.5C 150.5,283.5 149.5,283.5 148.5,283.5C 147.07,282.463 145.403,281.796 143.5,281.5C 145.128,276.91 147.295,272.577 150,268.5C 151.787,267.657 153.62,267.49 155.5,268C 154.5,267 153.5,266 152.5,265C 155.297,262.221 157.13,259.054 158,255.5C 155.46,257.705 153.293,260.205 151.5,263C 150.167,263.667 148.833,263.667 147.5,263C 143.039,260.936 138.706,258.602 134.5,256C 132.307,253.975 131.307,251.475 131.5,248.5C 142.139,247.188 152.805,246.188 163.5,245.5 Z"/></g>
<g><path style="opacity:1" fill="#2975d3" d="M 233.5,246.5 C 244.496,246.944 255.496,247.278 266.5,247.5C 266.246,250.014 265.413,252.348 264,254.5C 261.237,257.437 258.07,259.77 254.5,261.5C 251.797,261.955 249.13,262.622 246.5,263.5C 245.833,263.167 245.167,262.833 244.5,262.5C 241.858,258.691 239.025,255.024 236,251.5C 237.366,255.583 239.7,259.25 243,262.5C 243.966,265.34 243.133,267.34 240.5,268.5C 239.833,268.833 239.167,269.167 238.5,269.5C 238.096,268.244 237.429,267.077 236.5,266C 236.833,265.5 237.167,265 237.5,264.5C 238.524,265.853 239.857,266.52 241.5,266.5C 240.661,261.671 238.327,257.671 234.5,254.5C 230.973,257.239 229.973,256.406 231.5,252C 231.164,250.97 230.497,250.47 229.5,250.5C 229.5,250.167 229.5,249.833 229.5,249.5C 231.455,249.201 232.789,248.201 233.5,246.5 Z"/></g>
<g><path style="opacity:1" fill="#2466c1" d="M 170.5,252.5 C 171.167,252.5 171.833,252.5 172.5,252.5C 178.262,257.887 184.595,262.554 191.5,266.5C 184.897,269.465 178.231,272.465 171.5,275.5C 169.804,273.732 168.47,271.565 167.5,269C 168.059,268.275 168.392,267.442 168.5,266.5C 167.803,262.529 167.303,258.529 167,254.5C 166.308,253.975 165.808,253.308 165.5,252.5C 167.095,251.566 168.761,251.566 170.5,252.5 Z"/></g>
<g><path style="opacity:0.963" fill="#ecf6f9" d="M 112.5,222.5 C 112.161,229.363 111.494,236.196 110.5,243C 110.53,245.424 110.863,247.757 111.5,250C 110.376,250.839 109.709,252.006 109.5,253.5C 110.068,255.204 110.068,256.704 109.5,258C 111.471,258.014 113.471,257.681 115.5,257C 119.088,254.623 122.588,252.123 126,249.5C 126.483,248.552 126.649,247.552 126.5,246.5C 126.833,246.5 127.167,246.5 127.5,246.5C 127.491,248.308 127.991,249.975 129,251.5C 136.033,259.919 140.533,269.586 142.5,280.5C 140.932,281.473 139.265,281.64 137.5,281C 130.4,276.226 123.067,271.892 115.5,268C 113.146,267.153 110.812,266.32 108.5,265.5C 107.504,265.586 106.671,265.252 106,264.5C 105.471,259.146 105.638,253.813 106.5,248.5C 107.469,247.691 108.302,246.691 109,245.5C 109.633,239.839 110.133,234.172 110.5,228.5C 111.167,226.5 111.833,224.5 112.5,222.5 Z"/></g>
<g><path style="opacity:1" fill="#1c5dbc" d="M 229.5,250.5 C 230.497,250.47 231.164,250.97 231.5,252C 229.973,256.406 230.973,257.239 234.5,254.5C 238.327,257.671 240.661,261.671 241.5,266.5C 239.857,266.52 238.524,265.853 237.5,264.5C 237.167,265 236.833,265.5 236.5,266C 237.429,267.077 238.096,268.244 238.5,269.5C 237.055,271.063 235.389,272.396 233.5,273.5C 230.14,273.616 226.807,273.949 223.5,274.5C 223.5,273.5 223.5,272.5 223.5,271.5C 218.588,271.356 214.088,270.023 210,267.5C 209.517,266.552 209.351,265.552 209.5,264.5C 215.808,259.344 222.475,254.677 229.5,250.5 Z"/></g>
<g><path style="opacity:0.999" fill="#f4fbfc" d="M 262.5,260.5 C 269.494,261 276.494,261.5 283.5,262C 285.608,262.36 287.608,263.027 289.5,264C 284.755,266.774 280.755,269.607 277.5,272.5C 277.5,273.167 277.167,273.5 276.5,273.5C 274.801,273.34 273.134,273.506 271.5,274C 266.993,277.587 261.993,280.087 256.5,281.5C 256.833,278.167 257.167,274.833 257.5,271.5C 257.971,269.421 258.637,267.421 259.5,265.5C 260.687,263.928 261.687,262.261 262.5,260.5 Z"/></g>
<g><path style="opacity:1" fill="#7dbbea" d="M 254.5,261.5 C 252.78,262.864 250.78,263.864 248.5,264.5C 247.828,265.949 247.161,267.282 246.5,268.5C 244.477,267.479 242.477,267.812 240.5,269.5C 240.5,269.167 240.5,268.833 240.5,268.5C 243.133,267.34 243.966,265.34 243,262.5C 239.7,259.25 237.366,255.583 236,251.5C 239.025,255.024 241.858,258.691 244.5,262.5C 245.167,262.833 245.833,263.167 246.5,263.5C 249.13,262.622 251.797,261.955 254.5,261.5 Z"/></g>
<g><path style="opacity:1" fill="#3b8de2" d="M 254.5,261.5 C 256.167,261.5 257.833,261.5 259.5,261.5C 259.5,262.833 259.5,264.167 259.5,265.5C 258.637,267.421 257.971,269.421 257.5,271.5C 256.046,274.408 254.546,277.408 253,280.5C 251.989,281.337 250.822,281.67 249.5,281.5C 250.289,280.085 250.956,278.585 251.5,277C 249.955,274.073 248.288,271.24 246.5,268.5C 247.161,267.282 247.828,265.949 248.5,264.5C 250.78,263.864 252.78,262.864 254.5,261.5 Z"/></g>
<g><path style="opacity:1" fill="#256ecb" d="M 209.5,264.5 C 209.351,265.552 209.517,266.552 210,267.5C 214.088,270.023 218.588,271.356 223.5,271.5C 223.5,272.5 223.5,273.5 223.5,274.5C 226.807,273.949 230.14,273.616 233.5,273.5C 230.037,274.867 227.037,275.867 224.5,276.5C 223.766,277.708 223.433,279.041 223.5,280.5C 206.671,278.293 190.005,278.293 173.5,280.5C 172.218,279.292 172.218,277.958 173.5,276.5C 179.963,273.236 186.63,270.57 193.5,268.5C 194.5,269.167 195.5,269.833 196.5,270.5C 197.833,271.833 199.167,271.833 200.5,270.5C 203.328,268.252 206.328,266.252 209.5,264.5 Z"/></g>
<g><path style="opacity:1" fill="#2675d8" d="M 246.5,268.5 C 248.288,271.24 249.955,274.073 251.5,277C 250.956,278.585 250.289,280.085 249.5,281.5C 249.167,281.5 248.833,281.5 248.5,281.5C 244.486,281.666 240.486,281.499 236.5,281C 233.194,279.463 232.694,277.296 235,274.5C 237.191,273.167 239.024,271.5 240.5,269.5C 242.477,267.812 244.477,267.479 246.5,268.5 Z"/></g>
<g><path style="opacity:1" fill="#c6dcef" d="M 108.5,265.5 C 110.812,266.32 113.146,267.153 115.5,268C 123.067,271.892 130.4,276.226 137.5,281C 139.265,281.64 140.932,281.473 142.5,280.5C 142.5,281.167 142.833,281.5 143.5,281.5C 145.403,281.796 147.07,282.463 148.5,283.5C 146.833,283.5 145.167,283.5 143.5,283.5C 143.114,287.876 143.781,292.043 145.5,296C 150.708,297.397 156.041,297.897 161.5,297.5C 159.363,292.022 156.03,287.355 151.5,283.5C 156.009,283.29 160.342,282.29 164.5,280.5C 165.429,279.311 165.762,277.978 165.5,276.5C 167.167,276.5 168.833,276.5 170.5,276.5C 171.301,278.042 171.634,279.708 171.5,281.5C 169.5,281.5 167.5,281.5 165.5,281.5C 164.66,285.861 163.66,290.195 162.5,294.5C 162.437,296.514 163.103,298.181 164.5,299.5C 158.241,299.346 151.907,299.179 145.5,299C 142.667,294.498 140.5,289.665 139,284.5C 138.167,283.667 137.333,282.833 136.5,282C 126.456,277.401 117.123,271.901 108.5,265.5 Z"/></g>
<g><path style="opacity:1" fill="#f8fcfc" d="M 148.5,283.5 C 149.5,283.5 150.5,283.5 151.5,283.5C 156.03,287.355 159.363,292.022 161.5,297.5C 156.041,297.897 150.708,297.397 145.5,296C 143.781,292.043 143.114,287.876 143.5,283.5C 145.167,283.5 146.833,283.5 148.5,283.5 Z"/></g>
<g><path style="opacity:1" fill="#c0d5ec" d="M 257.5,271.5 C 257.167,274.833 256.833,278.167 256.5,281.5C 261.993,280.087 266.993,277.587 271.5,274C 273.134,273.506 274.801,273.34 276.5,273.5C 270.274,277.533 263.774,281.2 257,284.5C 256.604,289.522 255.104,294.188 252.5,298.5C 247.144,299.786 241.811,299.786 236.5,298.5C 233.976,299.592 231.643,300.926 229.5,302.5C 230.388,300.191 232.054,298.524 234.5,297.5C 235.786,294.24 235.453,291.24 233.5,288.5C 233.5,288.167 233.5,287.833 233.5,287.5C 233.201,285.396 233.534,283.396 234.5,281.5C 237.66,283.027 240.993,283.693 244.5,283.5C 243.791,284.404 242.791,284.737 241.5,284.5C 239.029,288.456 237.362,292.789 236.5,297.5C 241.511,297.666 246.511,297.499 251.5,297C 253.92,292.496 254.92,287.663 254.5,282.5C 251.833,282.833 249.167,283.167 246.5,283.5C 247.167,282.833 247.833,282.167 248.5,281.5C 248.833,281.5 249.167,281.5 249.5,281.5C 250.822,281.67 251.989,281.337 253,280.5C 254.546,277.408 256.046,274.408 257.5,271.5 Z"/></g>
<g><path style="opacity:1" fill="#f8fcfc" d="M 244.5,283.5 C 245.167,283.5 245.833,283.5 246.5,283.5C 249.167,283.167 251.833,282.833 254.5,282.5C 254.92,287.663 253.92,292.496 251.5,297C 246.511,297.499 241.511,297.666 236.5,297.5C 237.362,292.789 239.029,288.456 241.5,284.5C 242.791,284.737 243.791,284.404 244.5,283.5 Z"/></g>
<g><path style="opacity:1" fill="#3286e9" d="M 171.5,281.5 C 178.06,287.791 185.06,293.625 192.5,299C 193.1,302.436 195.1,304.269 198.5,304.5C 197.602,305.158 196.602,305.824 195.5,306.5C 196.325,307.386 197.325,307.719 198.5,307.5C 197.782,312.021 197.449,316.355 197.5,320.5C 195.661,319.418 193.661,318.585 191.5,318C 187.955,314.962 184.455,311.795 181,308.5C 179.234,307.767 177.401,307.433 175.5,307.5C 171.686,305.087 168.019,302.421 164.5,299.5C 163.103,298.181 162.437,296.514 162.5,294.5C 163.66,290.195 164.66,285.861 165.5,281.5C 167.5,281.5 169.5,281.5 171.5,281.5 Z"/></g>
<g><path style="opacity:1" fill="#4881d4" d="M 233.5,288.5 C 235.453,291.24 235.786,294.24 234.5,297.5C 232.054,298.524 230.388,300.191 229.5,302.5C 222.805,308.039 215.805,313.372 208.5,318.5C 210.3,316.172 211.467,313.505 212,310.5C 214.369,309.732 216.535,308.565 218.5,307C 219.337,305.989 219.67,304.822 219.5,303.5C 221.167,303.5 222.833,303.5 224.5,303.5C 224.5,301.833 224.5,300.167 224.5,298.5C 232.033,299.235 235.033,295.902 233.5,288.5 Z"/></g>
<g><path style="opacity:1" fill="#2177df" d="M 233.5,287.5 C 233.5,287.833 233.5,288.167 233.5,288.5C 235.033,295.902 232.033,299.235 224.5,298.5C 224.5,300.167 224.5,301.833 224.5,303.5C 222.833,303.5 221.167,303.5 219.5,303.5C 219.67,304.822 219.337,305.989 218.5,307C 216.535,308.565 214.369,309.732 212,310.5C 211.467,313.505 210.3,316.172 208.5,318.5C 208.167,318.5 207.833,318.5 207.5,318.5C 204.266,319.576 200.932,320.243 197.5,320.5C 197.449,316.355 197.782,312.021 198.5,307.5C 197.325,307.719 196.325,307.386 195.5,306.5C 196.602,305.824 197.602,305.158 198.5,304.5C 199.552,304.649 200.552,304.483 201.5,304C 209.802,297.037 218.135,290.037 226.5,283C 228.134,282.506 229.801,282.34 231.5,282.5C 231.12,284.698 231.787,286.365 233.5,287.5 Z"/></g>
<g><path style="opacity:1" fill="#4692d7" d="M 191.5,266.5 C 192.5,266.833 193.167,267.5 193.5,268.5C 186.63,270.57 179.963,273.236 173.5,276.5C 172.218,277.958 172.218,279.292 173.5,280.5C 180.78,284.126 186.78,289.126 191.5,295.5C 193.824,295.662 195.491,296.828 196.5,299C 199.596,299.927 201.93,298.927 203.5,296C 205.392,295.027 207.392,294.36 209.5,294C 215.039,288.956 220.706,284.123 226.5,279.5C 227.919,280.451 229.585,280.784 231.5,280.5C 231.5,279.167 231.5,277.833 231.5,276.5C 229.486,276.392 227.82,277.058 226.5,278.5C 226.167,277.5 225.5,276.833 224.5,276.5C 227.037,275.867 230.037,274.867 233.5,273.5C 235.389,272.396 237.055,271.063 238.5,269.5C 239.167,269.167 239.833,268.833 240.5,268.5C 240.5,268.833 240.5,269.167 240.5,269.5C 239.024,271.5 237.191,273.167 235,274.5C 232.694,277.296 233.194,279.463 236.5,281C 240.486,281.499 244.486,281.666 248.5,281.5C 247.833,282.167 247.167,282.833 246.5,283.5C 245.833,283.5 245.167,283.5 244.5,283.5C 240.993,283.693 237.66,283.027 234.5,281.5C 233.534,283.396 233.201,285.396 233.5,287.5C 231.787,286.365 231.12,284.698 231.5,282.5C 229.801,282.34 228.134,282.506 226.5,283C 218.135,290.037 209.802,297.037 201.5,304C 200.552,304.483 199.552,304.649 198.5,304.5C 195.1,304.269 193.1,302.436 192.5,299C 185.06,293.625 178.06,287.791 171.5,281.5C 171.634,279.708 171.301,278.042 170.5,276.5C 171.167,276.5 171.5,276.167 171.5,275.5C 178.231,272.465 184.897,269.465 191.5,266.5 Z"/></g>
<g><path style="opacity:1" fill="#267ede" d="M 224.5,276.5 C 225.5,276.833 226.167,277.5 226.5,278.5C 226.5,278.833 226.5,279.167 226.5,279.5C 220.706,284.123 215.039,288.956 209.5,294C 207.392,294.36 205.392,295.027 203.5,296C 201.93,298.927 199.596,299.927 196.5,299C 195.491,296.828 193.824,295.662 191.5,295.5C 186.78,289.126 180.78,284.126 173.5,280.5C 190.005,278.293 206.671,278.293 223.5,280.5C 223.433,279.041 223.766,277.708 224.5,276.5 Z"/></g>
<g><path style="opacity:1" fill="#c7e9f8" d="M 226.5,279.5 C 226.5,279.167 226.5,278.833 226.5,278.5C 227.82,277.058 229.486,276.392 231.5,276.5C 231.5,277.833 231.5,279.167 231.5,280.5C 229.585,280.784 227.919,280.451 226.5,279.5 Z"/></g>
<g><path style="opacity:0.812" fill="#598fdc" d="M 175.5,307.5 C 177.401,307.433 179.234,307.767 181,308.5C 184.455,311.795 187.955,314.962 191.5,318C 193.661,318.585 195.661,319.418 197.5,320.5C 200.932,320.243 204.266,319.576 207.5,318.5C 204.488,322.502 200.488,324.002 195.5,323C 188.222,318.539 181.555,313.372 175.5,307.5 Z"/></g>
</svg>
